<svg width="65" height="65" viewBox="0 0 65 65" fill="none" xmlns="http://www.w3.org/2000/svg">
<circle cx="32.5" cy="32.5" r="32.5" fill="#282828"/>
<path d="M49.7353 23.6795H39.2656V21.079H49.7367V23.6795H49.7353ZM32.2953 34.3436C32.9709 35.3901 33.3084 36.6604 33.3084 38.1522C33.3084 39.6945 32.9277 41.0786 32.1533 42.3006C31.6606 43.1094 31.0492 43.7928 30.3142 44.3425C29.4864 44.9786 28.5068 45.415 27.3799 45.6481C26.2503 45.8821 25.0269 46 23.7093 46H12V20H24.5566C27.7216 20.0515 29.9655 20.9685 31.2906 22.7695C32.0855 23.874 32.4796 25.1991 32.4796 26.7396C32.4796 28.3293 32.0808 29.601 31.2781 30.5671C30.8314 31.109 30.1717 31.6016 29.2984 32.0468C30.6211 32.5311 31.6244 33.2939 32.2953 34.3436ZM17.9963 30.2505H23.498C24.6286 30.2505 25.5428 30.0355 26.2466 29.6061C26.95 29.1771 27.301 28.4147 27.301 27.3199C27.301 26.1105 26.8363 25.3077 25.9044 24.9214C25.1035 24.6531 24.0789 24.5147 22.8355 24.5147H17.9963V30.2505ZM27.8308 37.7807C27.8308 36.4301 27.2787 35.4965 26.177 34.9955C25.5609 34.7109 24.6917 34.5651 23.577 34.5549H17.9963V41.4839H23.4906C24.6193 41.4839 25.4931 41.3362 26.1236 41.028C27.2606 40.4611 27.8308 39.3825 27.8308 37.7807ZM53.62 33.5511C53.7463 34.4017 53.8038 35.6357 53.7806 37.2491H40.2207C40.2954 39.1207 40.9417 40.4295 42.167 41.1789C42.9061 41.6487 43.8022 41.8781 44.851 41.8781C45.9574 41.8781 46.859 41.5986 47.5531 41.0233C47.9315 40.7187 48.2649 40.2884 48.5532 39.7456H53.5234C53.3934 40.8511 52.7949 41.9723 51.7192 43.1117C50.0529 44.9224 47.7161 45.8305 44.715 45.8305C42.2357 45.8305 40.0508 45.0649 38.1541 43.5388C36.264 42.0071 35.3146 39.5237 35.3146 36.0782C35.3146 32.8473 36.167 30.3745 37.877 28.6534C39.5934 26.929 41.809 26.0705 44.5395 26.0705C46.158 26.0705 47.6172 26.3598 48.9186 26.9415C50.2163 27.5237 51.2888 28.4402 52.1333 29.6994C52.8994 30.8081 53.3906 32.0905 53.62 33.5511ZM48.7283 34.0363C48.6373 32.7419 48.205 31.7627 47.4269 31.0932C46.6552 30.4218 45.6914 30.0848 44.5409 30.0848C43.2891 30.0848 42.3225 30.445 41.6354 31.1531C40.944 31.8597 40.5136 32.8203 40.3372 34.0363H48.7283Z" fill="white"/>
</svg>
