<svg width="65" height="65" viewBox="0 0 65 65" fill="none" xmlns="http://www.w3.org/2000/svg">
<circle cx="32.5" cy="32.5" r="32.5" fill="#282828"/>
<path d="M16.8999 39.5103C16.8999 39.5103 18.4267 40.177 19.4865 42.6836C19.4865 42.6836 20.854 46.5545 27.3344 45.2425C27.3409 46.3934 27.352 47.5017 27.3589 48.29C27.3627 48.6843 27.7068 49 28.1303 49H38.1505C38.5744 49 38.9189 48.6836 38.9216 48.2889C38.9292 47.1782 38.9429 45.3979 38.9429 43.3286C38.9429 41.3052 38.1986 39.9853 37.363 39.3123C42.5503 38.7754 48 36.9415 48 28.6112C48 26.2436 47.0964 24.3087 45.6025 22.7898C45.8442 22.2433 46.642 20.0375 45.3737 17.0501C45.3737 17.0501 43.4203 16.4677 38.9743 19.2734C37.1125 18.7927 35.1183 18.552 33.1385 18.5434C31.1591 18.5523 29.1664 18.7934 27.3081 19.2737C22.8567 16.4681 20.9006 17.0505 20.9006 17.0505C19.6358 20.0378 20.4332 22.2437 20.6749 22.7901C19.1848 24.3091 18.2743 26.2436 18.2743 28.6116C18.2743 36.9216 23.7137 38.7814 28.888 39.3297C28.2216 39.8712 27.6182 40.8284 27.4089 42.2299C26.0795 42.7842 22.7074 43.7425 20.6299 40.4273C20.6299 40.4273 19.3979 38.3452 17.0591 38.1919C17.0591 38.1919 14.7861 38.1642 16.8999 39.5103Z" fill="white"/>
</svg>
