<svg xmlns="http://www.w3.org/2000/svg" xmlns:xlink="http://www.w3.org/1999/xlink" version="1.1" width="256" height="256" viewBox="0 0 256 256" xml:space="preserve">
<desc>Created with Fabric.js 1.7.22</desc>
<defs>
</defs>
<g transform="translate(128 128) scale(0.72 0.72)" style="">
	<g style="stroke: none; stroke-width: 0; stroke-dasharray: none; stroke-linecap: butt; stroke-linejoin: miter; stroke-miterlimit: 10; fill: none; fill-rule: nonzero; opacity: 1;" transform="translate(-175.05 -175.05000000000004) scale(3.89 3.89)" >
	<path d="M 33.754 58.804 c -6.418 0 -12.836 -2.443 -17.721 -7.328 c -9.772 -9.772 -9.772 -25.671 0 -35.443 c 9.771 -9.772 25.672 -9.772 35.443 0 l 0 0 c 9.771 9.772 9.771 25.671 0 35.443 C 46.59 56.361 40.172 58.804 33.754 58.804 z M 33.754 10.703 c -5.905 0 -11.811 2.248 -16.307 6.744 c -8.992 8.992 -8.992 23.622 0 32.614 c 8.991 8.99 23.622 8.99 32.614 0 c 8.991 -8.992 8.991 -23.622 0 -32.614 C 45.565 12.951 39.659 10.703 33.754 10.703 z" style="stroke: none; stroke-width: 1; stroke-dasharray: none; stroke-linecap: butt; stroke-linejoin: miter; stroke-miterlimit: 10; fill: rgb(0,0,0); fill-rule: nonzero; opacity: 1;" transform=" matrix(1 0 0 1 0 0) " stroke-linecap="round" />
	<path d="M 88.104 78.919 L 61.778 52.592 c 9.033 -13.389 7.348 -31.223 -4.145 -42.717 c -13.166 -13.166 -34.592 -13.165 -47.758 0 c -13.166 13.167 -13.166 34.591 0 47.758 c 11.494 11.494 29.328 13.177 42.717 4.145 l 26.327 26.326 C 80.142 89.327 81.772 90 83.512 90 s 3.37 -0.673 4.593 -1.896 C 89.327 86.881 90 85.251 90 83.511 S 89.327 80.142 88.104 78.919 z M 52.709 59.48 c -0.202 0 -0.405 0.061 -0.579 0.185 c -12.663 9.006 -29.839 7.555 -40.841 -3.446 c -12.386 -12.387 -12.386 -32.542 0 -44.929 c 12.386 -12.386 32.542 -12.386 44.929 0 C 67.22 22.29 68.669 39.466 59.664 52.13 c -0.282 0.398 -0.236 0.942 0.108 1.286 l 2.967 2.967 l -6.357 6.357 l -2.967 -2.967 C 53.223 59.579 52.967 59.48 52.709 59.48 z M 86.69 86.69 c -1.752 1.752 -4.604 1.752 -6.357 0 L 57.798 64.154 l 6.357 -6.357 L 86.69 80.333 C 88.442 82.085 88.442 84.937 86.69 86.69 z" style="stroke: none; stroke-width: 1; stroke-dasharray: none; stroke-linecap: butt; stroke-linejoin: miter; stroke-miterlimit: 10; fill: rgb(0,0,0); fill-rule: nonzero; opacity: 1;" transform=" matrix(1 0 0 1 0 0) " stroke-linecap="round" />
	<path d="M 22.469 45.92 c -0.256 0 -0.512 -0.098 -0.707 -0.293 c -6.536 -6.537 -6.536 -17.173 0 -23.709 c 0.391 -0.391 1.024 -0.391 1.414 0 c 0.391 0.391 0.391 1.024 0 1.414 c -5.756 5.756 -5.756 15.124 0 20.881 c 0.391 0.391 0.391 1.024 0 1.414 C 22.981 45.822 22.725 45.92 22.469 45.92 z" style="stroke: none; stroke-width: 1; stroke-dasharray: none; stroke-linecap: butt; stroke-linejoin: miter; stroke-miterlimit: 10; fill: rgb(0,0,0); fill-rule: nonzero; opacity: 1;" transform=" matrix(1 0 0 1 0 0) " stroke-linecap="round" />
	<path d="M 48.181 40.82 c -0.128 0 -0.258 -0.025 -0.383 -0.077 c -0.511 -0.211 -0.753 -0.797 -0.541 -1.307 c 1.394 -3.36 1.499 -7.105 0.299 -10.543 c -0.182 -0.522 0.094 -1.092 0.614 -1.274 c 0.525 -0.181 1.092 0.093 1.275 0.615 c 1.363 3.903 1.241 8.154 -0.34 11.968 C 48.945 40.587 48.573 40.82 48.181 40.82 z" style="stroke: none; stroke-width: 1; stroke-dasharray: none; stroke-linecap: butt; stroke-linejoin: miter; stroke-miterlimit: 10; fill: rgb(0,0,0); fill-rule: nonzero; opacity: 1;" transform=" matrix(1 0 0 1 0 0) " stroke-linecap="round" />
</g>
</g>
</svg>