<svg width="65" height="65" viewBox="0 0 65 65" fill="none" xmlns="http://www.w3.org/2000/svg">
<circle cx="32.5" cy="32.5" r="32.5" fill="#282828"/>
<path d="M18.4604 28.297H24.2648V47H18.4604V28.297ZM21.3628 19C23.218 19 24.7256 20.5103 24.7256 22.3719C24.7256 24.2316 23.218 25.7419 21.3628 25.7419C19.5033 25.7419 18 24.2316 18 22.3719C18 20.5103 19.5033 19 21.3628 19Z" fill="white"/>
<path d="M27.9043 28.2971H33.4701V30.8546H33.5494C34.3241 29.3836 36.2175 27.834 39.0396 27.834C44.9155 27.834 46.0001 31.7064 46.0001 36.7423V47.0001H40.2V37.9048C40.2 35.7353 40.1624 32.9456 37.1847 32.9456C34.1651 32.9456 33.7043 35.3102 33.7043 37.749V47.0001H27.9043V28.2971Z" fill="white"/>
</svg>
