<svg width="65" height="65" viewBox="0 0 65 65" fill="none" xmlns="http://www.w3.org/2000/svg">
<circle cx="32.5" cy="32.5" r="32.5" fill="#282828"/>
<path d="M48.9277 48H17.0463C14.8153 48 13 46.1847 13 43.9537V22.0463C13 19.8153 14.8153 18 17.0463 18H48.9277C51.1587 18 52.9739 19.8153 52.9739 22.0463V43.9537C52.9739 46.1852 51.1587 48 48.9277 48ZM17.0463 20.6649C16.2845 20.6649 15.6649 21.285 15.6649 22.0463V43.9537C15.6649 44.7155 16.2845 45.3351 17.0463 45.3351H48.9277C49.6894 45.3351 50.309 44.715 50.309 43.9537V22.0463C50.309 21.2845 49.689 20.6649 48.9277 20.6649H17.0463Z" fill="white"/>
<path d="M32.9871 37.6312C30.5851 37.6312 28.2795 36.6132 26.6615 34.8384L14.1074 21.0633L16.0772 19.2681L28.6313 33.0426C29.7617 34.2827 31.3087 34.9663 32.9871 34.9663C34.6656 34.9663 36.2126 34.2832 37.3434 33.0426L49.8979 19.2681L51.8672 21.0633L39.3123 34.8379C37.6947 36.6132 35.3891 37.6312 32.9871 37.6312Z" fill="white"/>
<path d="M26.3904 32.6565L14.1794 44.9298L16.0686 46.8094L28.2796 34.5361L26.3904 32.6565Z" fill="white"/>
<path d="M39.5852 32.6562L37.6958 34.5358L49.9068 46.8108L51.7962 44.9312L39.5852 32.6562Z" fill="white"/>
</svg>
