<svg xmlns="http://www.w3.org/2000/svg" xmlns:xlink="http://www.w3.org/1999/xlink" version="1.1" width="256" height="256" viewBox="0 0 256 256" xml:space="preserve">
<desc>Created with Fabric.js 1.7.22</desc>
<defs>
</defs>
<g transform="translate(128 128) scale(0.72 0.72)" style="">
	<g style="stroke: none; stroke-width: 0; stroke-dasharray: none; stroke-linecap: butt; stroke-linejoin: miter; stroke-miterlimit: 10; fill: none; fill-rule: nonzero; opacity: 1;" transform="translate(-175.05 -175.05000000000004) scale(3.89 3.89)" >
	<path d="M 45 0 C 20.187 0 0 20.187 0 45 c 0 24.813 20.187 45 45 45 c 24.813 0 45 -20.187 45 -45 C 90 20.187 69.813 0 45 0 z M 67.18 65.613 l -5.296 2.671 c -2.475 1.248 -5.392 1.317 -7.904 0.146 c -14.734 -6.872 -25.538 -17.676 -32.41 -32.41 c -1.172 -2.512 -1.103 -5.43 0.146 -7.904 l 2.671 -5.296 c 1.271 -2.519 4.747 -2.821 6.433 -0.559 l 5.959 7.994 c 0.899 1.206 1.001 2.828 0.261 4.137 l -1.313 2.322 c -0.63 1.114 -0.671 2.478 -0.07 3.607 c 3.247 6.1 7.921 10.773 14.021 14.021 c 1.129 0.601 2.493 0.56 3.607 -0.07 l 2.322 -1.313 c 1.309 -0.74 2.931 -0.637 4.137 0.261 l 7.994 5.959 C 70.001 60.866 69.699 64.342 67.18 65.613 z" style="stroke: none; stroke-width: 1; stroke-dasharray: none; stroke-linecap: butt; stroke-linejoin: miter; stroke-miterlimit: 10; fill: rgb(0,0,0); fill-rule: nonzero; opacity: 1;" transform=" matrix(1 0 0 1 0 0) " stroke-linecap="round" />
</g>
</g>
</svg>